<svg width="48" height="49" viewBox="0 0 48 49" fill="none" xmlns="http://www.w3.org/2000/svg">
<path fill-rule="evenodd" clip-rule="evenodd" d="M33.6867 14.0956C31.2086 11.7322 27.9016 10.4447 24.48 10.4976C18.2188 10.4976 12.9011 14.7217 11.0051 20.4097C9.99976 23.3904 9.99976 26.6182 11.0051 29.5989H11.0139C12.9187 35.2781 18.2276 39.5022 24.4888 39.5022C27.7209 39.5022 30.4956 38.6755 32.6461 37.2154V37.2094C35.1771 35.5339 36.9055 32.8971 37.4435 29.9164H24.48V20.6744H47.1176C47.3998 22.2794 47.5321 23.9197 47.5321 25.5512C47.5321 32.8508 44.9233 39.0224 40.3841 43.2024L40.3889 43.2061C36.4116 46.8746 30.9529 48.9999 24.48 48.9999C15.4056 48.9999 7.10721 43.8851 3.03299 35.7808C-0.37099 28.9992 -0.370982 21.0095 3.03301 14.228C7.10724 6.11479 15.4056 0.999908 24.48 0.999908C30.4414 0.929359 36.2 3.1693 40.5388 7.24352L33.6867 14.0956Z" fill="white"/>
</svg>
